<svg width="34" height="31" viewBox="0 0 34 31" fill="none" xmlns="http://www.w3.org/2000/svg">
<path d="M33.9086 16.4422C33.8458 16.6137 33.7201 16.678 33.5735 16.6995C33.4897 16.6995 33.4059 16.6995 33.3222 16.6995C22.3684 16.6995 11.4146 16.6995 0.460772 16.6995C0.293218 16.6995 0.125665 16.678 0 16.5709C0 16.4851 0 16.3994 0 16.3136C0.0837766 16.2922 0.104721 16.2064 0.125665 16.1421C1.00532 14.4915 1.86403 12.8622 2.74369 11.233C3.49768 9.81818 4.20978 8.36046 5.0266 6.96705C6.38797 4.60897 8.31483 2.82969 10.7025 1.56491C12.1686 0.793172 13.7394 0.300119 15.394 0.0857483C15.4777 0.0857483 15.5825 0.128622 15.6243 0C16.0013 0 16.3574 0 16.7344 0C17.0695 0.0857483 17.4046 0.0857483 17.7397 0C18.0748 0 18.4099 0 18.745 0C18.7869 0.107185 18.8707 0.0643112 18.9335 0.0643112C20.5672 0.257245 22.138 0.72886 23.6041 1.47916C25.4472 2.40095 27.0389 3.68718 28.3375 5.33783C29.3428 6.60262 30.1177 7.99603 30.6623 9.5395C31.123 10.8686 31.5 12.2406 31.9189 13.5911C32.1912 14.4486 32.5682 14.7273 33.4688 14.7487C33.6573 14.7487 33.8248 14.813 33.9086 15.006C33.9086 15.499 33.9086 15.9706 33.9086 16.4422ZM18.745 12.2406C18.1586 12.2406 17.6978 12.7122 17.6978 13.291C17.6978 13.9127 18.1167 14.3628 18.745 14.3628C19.3315 14.3628 19.7922 13.8912 19.7922 13.3124C19.7922 12.7551 19.2896 12.2406 18.745 12.2406ZM21.761 14.3628C22.3474 14.3628 22.8291 13.9127 22.8291 13.3124C22.8291 12.7551 22.3684 12.262 21.8238 12.2406C21.2374 12.2191 20.7557 12.7122 20.7347 13.291C20.7138 13.8698 21.1745 14.3628 21.761 14.3628Z" fill="white"/>
<path d="M9.40398 30.0334C9.3202 29.9048 9.42492 29.8191 9.48776 29.7548C10.2836 28.9187 10.9957 28.0184 11.6241 27.0323C12.4199 25.7675 13.0692 24.4384 13.509 23.0021C13.8023 22.016 14.0536 21.0084 14.1792 19.9795C14.2002 19.808 14.263 19.7437 14.4306 19.7437C15.2893 19.7437 16.148 19.7437 16.9858 19.7437C17.1743 19.7437 17.2371 19.808 17.1952 20.0009C16.7763 21.8659 16.0433 23.6023 14.9751 25.1887C13.7813 26.9679 12.2733 28.3828 10.4721 29.4761C10.1789 29.669 9.84381 29.7976 9.57153 30.0334C9.52965 30.0334 9.46681 30.0334 9.40398 30.0334Z" fill="white"/>
<path d="M33.9086 15.0273C33.9296 15.0273 33.9505 15.0273 33.9505 15.0273C33.9505 15.499 33.9505 15.992 33.9505 16.4636C33.9296 16.4636 33.9086 16.4422 33.8877 16.4422C33.9086 15.9706 33.9086 15.499 33.9086 15.0273Z" fill="white"/>
<path d="M17.7397 0C17.4046 0.0867473 17.0695 0.0867473 16.7344 0C17.0695 0 17.4046 0 17.7397 0Z" fill="white"/>
<path d="M5.31968 18.5645C5.63385 18.5645 5.94801 18.5645 6.24123 18.5645C6.38784 18.5645 6.42972 18.6073 6.38784 18.7574C5.75951 21.7586 6.15745 24.674 7.07899 27.5251C7.18371 27.8467 7.28843 28.1683 7.37221 28.5113C7.39316 28.5756 7.47693 28.6613 7.37221 28.7042C7.28843 28.7471 7.24655 28.6399 7.18371 28.597C6.702 28.1254 6.30406 27.6109 5.94801 27.0535C5.25685 25.9817 4.73325 24.8241 4.44003 23.5593C4.08398 21.9944 3.93737 20.408 4.14681 18.8003C4.16775 18.6288 4.23059 18.5645 4.39814 18.5645C4.7123 18.5859 5.00552 18.5645 5.31968 18.5645Z" fill="white"/>
<path d="M19.7292 20.7511C19.7921 20.6867 19.8759 20.7082 19.9387 20.7082C22.431 20.5581 24.9025 20.4081 27.3739 20.2366C27.5833 20.2151 27.6252 20.2794 27.6043 20.4938C27.4995 21.3513 27.3948 22.1873 27.311 23.0448C27.2901 23.2592 27.2273 23.2806 27.0388 23.2163C25.3632 22.659 23.6877 22.1016 22.0122 21.5442C21.321 21.3084 20.6298 21.0941 19.9387 20.8797C19.8549 20.8368 19.7502 20.8368 19.7292 20.7511Z" fill="white"/>
</svg>
